<svg xmlns="http://www.w3.org/2000/svg" viewBox="0 0 383.11 383.14"><defs><style>.cls-1{opacity:0.5;}.cls-2{fill:#fff;}.cls-3{fill:#727272;}.cls-4{fill:#030303;}.cls-5{fill:#020202;}</style></defs><path d="M1590.84,372.63c-1.34,1.87-1.18,4.19-1.82,6.28-5.17,16.69-16.34,27.88-32,34.87-2.4,1.07-2.67,1.74-1.3,4.08,9.92,16.86,10.2,33.91.56,51-1.15,2.05-2.63,3.68-5.11,3.89a5.28,5.28,0,0,1-5.09-2.53,5.47,5.47,0,0,1,.08-6.34c10.12-15.87,6.29-35-5.16-47.17-4.17-4.42-2.6-8.77,3.52-10.43,12-3.24,21.91-9.47,28.81-19.94a38.26,38.26,0,0,0-4.27-47.25c-1.29-1.37-2.08-1.44-3.62-.44a29.49,29.49,0,0,1-13.55,4.9c-4,.35-6.42-1.24-7-4.51s1.31-5.77,5.15-6.48c12-2.22,19.29-9.71,21.9-21.2,2.77-12.15-2.39-21.62-12.12-28.79-6.21-4.58-13.38-6.37-20.95-7-5.81-.52-7.7-4.33-4.88-9.4,7.43-13.33,4.69-27.11-7.31-36.54-6.81-5.34-14.67-7.68-23.22-8.11-2.18-.11-3,.54-3.38,2.76a35.75,35.75,0,0,1-7.25,16.18c-2.29,2.83-5.29,3.32-7.89,1.47s-3.07-5.1-1-8.23c9.46-14.4,7.58-30-5-41.83-22.16-20.7-57.92-13.46-70.53,8.91a25.05,25.05,0,0,0-3.53,13.32c.06,8.36.08,16.71,0,25.07-.06,3.71-2.54,6.17-5.69,6.1s-5.21-2.44-5.46-6c-.08-1,0-2,0-3,0-9.36-.06-18.71,0-28.06a5.89,5.89,0,0,0-2.13-5.19c-1.2-1-1.92-2.57-2.76-3.95-16.59-26.8-61.32-25.61-76.43,2a30.34,30.34,0,0,0-3.82,13.89c-.16,5.54-2.55,7.45-8.15,6.78-1.48-.18-3-.22-4.47-.32-3.2-.21-5.08-1.91-5.48-5.07-.38-3,1.54-5.51,4.85-6,1.53-.23,2.41-.45,2.78-2.17,4.18-19.12,16.72-30.66,34.53-36.84,24.89-8.64,53.57,1.33,66,22.23.1.18.37.27.78.54,1-1.37,1.93-2.77,2.92-4.14,23.25-31.92,77.4-27.65,94.65,7.48a31,31,0,0,1,3.24,9.49c.34,2.66,1.42,3.27,4,3.41,17.38,1,31.48,7.91,40.45,23.4a34.09,34.09,0,0,1,3.36,27.74c-1,3.41,0,4,2.93,4.77a44,44,0,0,1,25.72,17.41c9.38,13.27,9.71,29.56.75,43.07-1.38,2.07-1.64,3.22.2,5.27a49,49,0,0,1,12.61,27c0,.3.36.57.55.85Z" transform="translate(-1207.73 -168.31)"/><path class="cls-2" d="M1352.3,550.83q-.06.31-.15.63h-3.74C1349.56,550.32,1350.92,550.55,1352.3,550.83Z" transform="translate(-1207.73 -168.31)"/><path class="cls-3" d="M1445.68,551.46a.86.86,0,0,0-.08-.65c1.35-.21,2.7-.48,3.82.65Z" transform="translate(-1207.73 -168.31)"/><path d="M1235.36,441.35a47.82,47.82,0,0,1,7.62-23.73c1.46-2.27.83-2.85-1.31-3.82-18.32-8.31-30.57-21.63-33.45-42.09-2.09-14.79,2.62-27.78,12.16-39,1.83-2.16,2.38-3.41.57-6.15-12.88-19.49-5.3-45,16.48-56.32a44.86,44.86,0,0,1,11.49-4.28c2.13-.44,2.44-1,1.84-3.17a38.81,38.81,0,0,1,16.11-43.44c2.61-1.69,5.11-2,7.49.22,2.1,1.94,2.23,4.33,1,6.82-.68,1.4-2,2.14-3.22,3.05-6.35,4.93-10.46,11.2-11.68,19.28a25.54,25.54,0,0,0,.64,9.63c.88,3.9,2.28,6.9,7.27,7.42,5.36.56,10.14,3.31,14.15,7a5.44,5.44,0,0,1,.47,7.72c-2.17,2.31-4.74,2.55-7.43.89-13.17-8.16-27.67-7-39.44,3.2-12.78,11.06-13.76,27.84-2.37,40.33,3.71,4.07,3.59,6.6-.5,10.44-14.28,13.4-18.35,31.32-10.33,47.06,6.37,12.5,17,19.81,30.25,23.72,7.55,2.23,8.65,5.79,3.52,11.66a39.43,39.43,0,0,0-10.16,25.45c-.11,3.92-2.69,6.46-6,6.26s-5.21-2.67-5.23-6.49C1235.36,442.64,1235.36,442.27,1235.36,441.35Z" transform="translate(-1207.73 -168.31)"/><path d="M1271.24,359.88c.46-19.91,18.76-41.36,38.27-44.84,3.63-.65,6.44,1,7.19,4.21.68,2.94-1,5.71-4.51,6.67-17.74,4.92-27.1,16.93-29.78,34.74-.57,3.8-3,5.83-6.25,5.5S1271.15,363.52,1271.24,359.88Z" transform="translate(-1207.73 -168.31)"/><path d="M1327.47,437.84c0-1.24-.09-2.5,0-3.73.31-3.41,2.71-5.56,5.9-5.41a5.37,5.37,0,0,1,5.24,5.65,51.24,51.24,0,0,0,1.46,13.68c2.65,9.73,8.13,17.22,17.18,21.89,2.5,1.29,4.34,2.94,4.17,6-.23,4.33-4.54,6.42-8.88,4.22-13.93-7-21.52-18.69-24.32-33.75-.3-1.59-.53-3.2-.67-4.81-.1-1.23,0-2.48,0-3.73Z" transform="translate(-1207.73 -168.31)"/><path d="M1363.1,236.55c-1.49,13.33-8.5,22.69-19.11,29.63a53.57,53.57,0,0,1-8.23,4.29c-3.46,1.48-6.48.26-7.8-2.79s0-5.87,3.5-7.45a40.09,40.09,0,0,0,14.16-10.06c3.72-4.28,5.49-9.33,6.45-14.82a5.41,5.41,0,0,1,6-4.79A5.68,5.68,0,0,1,1363.1,236.55Z" transform="translate(-1207.73 -168.31)"/><path d="M1361.49,359.9c-.55,11.16-4.84,20.3-15.11,26-3.59,2-6.79,1.4-8.5-1.43-1.86-3.07-.86-6.09,3-8.28,6.94-4,9.39-10.23,9.42-17.81,0-3,1.11-5.33,4.28-6.15a5.24,5.24,0,0,1,6.07,2.51C1361.63,356.23,1361.51,358,1361.49,359.9Z" transform="translate(-1207.73 -168.31)"/><path class="cls-4" d="M1484.75,364.65a5.6,5.6,0,0,1-5.41,5.56,5.82,5.82,0,0,1-5.73-5.7,5.56,5.56,0,0,1,5.87-5.45A5.36,5.36,0,0,1,1484.75,364.65Z" transform="translate(-1207.73 -168.31)"/><path class="cls-4" d="M1517.49,370.21a5.82,5.82,0,0,1-5.73-5.7,5.58,5.58,0,0,1,5.5-5.46,5.36,5.36,0,0,1,5.63,5.22A5.6,5.6,0,0,1,1517.49,370.21Z" transform="translate(-1207.73 -168.31)"/><path class="cls-5" d="M1456.6,210.15a5.52,5.52,0,0,1-5.87,5.43,5.38,5.38,0,0,1-5.25-5.61,5.63,5.63,0,0,1,5.43-5.54A5.77,5.77,0,0,1,1456.6,210.15Z" transform="translate(-1207.73 -168.31)"/><path class="cls-5" d="M1456.59,519.22a5.51,5.51,0,0,1-5.91,5.38,5.38,5.38,0,0,1-5.2-5.66,5.61,5.61,0,0,1,5.48-5.48A5.73,5.73,0,0,1,1456.59,519.22Z" transform="translate(-1207.73 -168.31)"/><path d="M1536,482.66c-1.39-3.18-4.69-4.07-8.63-2.17a55.66,55.66,0,0,1-17.79,5.26c-4.94.59-6.78,3-6.11,7.89,1.25,9.21-1.07,17.57-6.19,25.14-11.15,16.49-33.43,24.47-54.19,20.44-17.78-3.46-28.88-15-38-29.3a3.77,3.77,0,0,1-.2-1.83q0-33.3,0-66.59c0-1.82.56-2.37,2.35-2.32,4.73.14,9.49-.15,14.2.19,14.13,1,21.31,7.36,23.39,20.17.36,2.21.25,3.74-2.21,5.09a16.37,16.37,0,0,0-7.84,18.88,16.84,16.84,0,0,0,32.55-.26,16.61,16.61,0,0,0-8.43-19,4.49,4.49,0,0,1-2.78-4.19c-1.38-15.61-9.94-26.26-24.13-30.25-7.8-2.19-15.78-2.11-23.76-1.8-2.47.09-3.43-.31-3.38-3.11.2-9.72.18-19.45,0-29.17,0-2.58.83-3,3.15-3,11.48,0,23,.12,34.4.91,10.18.71,20.36,1.72,30.1,5.14,11.52,4.05,18.81,11.66,20.73,24.07.38,2.45-.26,3.4-2.3,4.55a16.56,16.56,0,0,0-7.75,19.25,17,17,0,0,0,16.26,12,16.78,16.78,0,0,0,16.18-12.55,16.42,16.42,0,0,0-8.06-18.77,5.39,5.39,0,0,1-3.15-4.8c-1.63-13.31-7.91-23.68-19.72-30.41-8.48-4.82-17.79-7-27.32-8.27-16.35-2.25-32.82-2.38-49.27-2.24-2.68,0-3.29-.76-3.24-3.33.16-8.72.06-17.45.06-26.18,0-5.7,0-5.68,5.62-5.7,18.45-.06,36.92,0,55.11-3.76,18.72-3.83,36.41-13.29,39-38.9.19-1.81,1.33-2.14,2.5-2.78,7-3.87,10.5-11.57,8.56-18.94a16.83,16.83,0,1,0-24.61,18.7c1.23.72,2.69.95,2.38,3.11-1.42,9.81-5.68,17.68-14.68,22.53a51.62,51.62,0,0,1-14.37,5.08c-18.94,3.82-38.16,3.6-57.35,3.79-2,0-2.16-.83-2.16-2.42,0-9.61.13-19.21,0-28.81,0-2.67,1-3.08,3.27-2.88a89.79,89.79,0,0,0,16.06-.37c18.18-1.68,29.83-12.81,31.81-30.88.32-2.9,1.4-4.22,3.77-5.59a16.52,16.52,0,0,0,6.59-21.16,16.79,16.79,0,0,0-20.64-9c-6.43,2.23-10.39,6.79-11.28,13.59-1,7.25,1.92,12.86,8.07,16.81,1.16.75,2.78.87,2.54,3.06-1.1,9.78-5.22,17.63-15.1,20.53-6.56,1.92-13.27,2.11-20,1.86-6.18-.24-4.93.22-5-5.06-.08-6.49.07-13-.11-19.45a5.46,5.46,0,0,0-5.39-5.59c-3-.08-5.3,2.07-5.65,5.32a37.54,37.54,0,0,0-.09,4.11q0,118.39,0,236.8c0,1.35.34,3.3-.39,3.95-4.1,3.67-5.74,9-9.32,13-19.62,22.09-57.59,22.85-78,1.54-13.39-13.95-15.3-35.53-2.71-48.24a5.35,5.35,0,0,0-.33-7.74,5.41,5.41,0,0,0-7.74.14,33.31,33.31,0,0,0-8.74,13.73c-.72,2.07-1.58,2.67-3.74,2.09-11.26-3-20.94-8.45-28.21-17.79-2.89-3.72-6.08-4.43-8.9-2.14-2.62,2.13-2.66,5.49,0,8.94a58.62,58.62,0,0,0,33.57,21.57c3.3.8,4.85,1.86,4.52,5.47a21.08,21.08,0,0,0,.88,6.64c5.12,21.59,19.47,34.3,39.84,41.1,3.7,1.24,7.56,2,11.34,3h12.72c1.19-.78,2.51-.21,3.76-.39a33.16,33.16,0,0,0,9.62-1.05c15-3.87,27-12.08,35.65-24.89,1.59-2.34,2.38-2.3,3.69.06,2.73,4.87,6.78,8.7,10.95,12.19,9.69,8.08,20.69,13.33,33.61,13.69,1.24.18,2.56-.39,3.73.39h12c.5-1.09,1.52-.57,2.3-.67,26.13-3.34,50.7-23.43,51.39-52.35,0-1.72.58-2.3,2.23-2.63a61.48,61.48,0,0,0,14.76-5.11C1536,488.78,1537.43,485.83,1536,482.66Zm-84.91-9.14a5.52,5.52,0,0,1,5.48,5.83,5.78,5.78,0,0,1-5.74,5.3,5.6,5.6,0,0,1-5.39-5.93A5.35,5.35,0,0,1,1451.13,473.52Zm48.2-37.25a5.61,5.61,0,0,1,5.55,5.34,5.53,5.53,0,0,1-5.37,5.85,5.72,5.72,0,0,1-5.83-5.48A5.79,5.79,0,0,1,1499.33,436.27Zm.07-155.69a5.53,5.53,0,0,1,5.48,5.74,5.6,5.6,0,0,1-5.45,5.44,5.79,5.79,0,0,1-5.75-5.6A5.68,5.68,0,0,1,1499.4,280.58Zm-48.62-36a5.55,5.55,0,0,1,5.84,5.48,5.8,5.8,0,0,1-5.77,5.67,5.66,5.66,0,0,1-5.39-5.59A5.4,5.4,0,0,1,1450.78,244.6Z" transform="translate(-1207.73 -168.31)"/></svg>